<svg width="80" height="80" viewBox="0 0 80 80" fill="none" xmlns="http://www.w3.org/2000/svg">
<g clip-path="url(#clip0_533_2384)">
<path d="M57 7H23C14.1634 7 7 14.1634 7 23V57C7 65.8366 14.1634 73 23 73H57C65.8366 73 73 65.8366 73 57V23C73 14.1634 65.8366 7 57 7Z" fill="#4592FB"/>
<path d="M33.722 55.1482L39.412 39.0202C40.22 36.7282 38.52 34.3242 36.088 34.3242H24.706C22.274 34.3242 20.574 36.7282 21.382 39.0202L27.072 55.1482C28.178 58.2842 32.612 58.2842 33.718 55.1482H33.722Z" fill="white"/>
<path d="M46.278 36.0278L40.588 52.1558C39.78 54.4478 41.48 56.8518 43.912 56.8518H55.294C57.726 56.8518 59.426 54.4478 58.618 52.1558L52.928 36.0278C51.822 32.8918 47.388 32.8918 46.282 36.0278H46.278Z" fill="white"/>
<path d="M30.4 31.102C32.7749 31.102 34.7 29.1768 34.7 26.802C34.7 24.4271 32.7749 22.502 30.4 22.502C28.0252 22.502 26.1 24.4271 26.1 26.802C26.1 29.1768 28.0252 31.102 30.4 31.102Z" fill="white"/>
<path d="M49.6 31.102C51.9749 31.102 53.9001 29.1768 53.9001 26.802C53.9001 24.4271 51.9749 22.502 49.6 22.502C47.2252 22.502 45.3 24.4271 45.3 26.802C45.3 29.1768 47.2252 31.102 49.6 31.102Z" fill="white"/>
</g>
<defs>
<clipPath id="clip0_533_2384">
<rect width="80" height="80" fill="white"/>
</clipPath>
</defs>
</svg>
