<svg width="17" height="17" viewBox="0 0 17 17" fill="none" xmlns="http://www.w3.org/2000/svg">
<path d="M1.56958 7.41695C0.957145 7.06435 0.624488 6.38398 0.723025 5.68366C0.821809 4.98558 1.32567 4.42408 2.00923 4.25275L14.063 1.02792C14.7099 0.855594 15.3752 0.973695 15.9075 1.33481L6.35458 9.35063L1.6479 7.45486C1.62137 7.44367 1.595 7.43071 1.56958 7.41695ZM7.1652 10.3031L8.25088 15.2462C8.2569 15.2738 8.26435 15.3002 8.27404 15.3263C8.51581 15.9907 9.12872 16.4343 9.83511 16.4584C10.2722 16.4727 10.6841 16.3237 11.001 16.0578C11.1968 15.8935 11.3562 15.6847 11.464 15.4417L16.6975 4.16561C16.9802 3.55637 16.9777 2.8796 16.7127 2.29255L7.1656 10.3036L7.1652 10.3031Z" fill="white"/>
</svg>
