<svg width="80" height="80" viewBox="0 0 80 80" fill="none" xmlns="http://www.w3.org/2000/svg">
<path d="M57 7H23C14.1634 7 7 14.1634 7 23V57C7 65.8366 14.1634 73 23 73H57C65.8366 73 73 65.8366 73 57V23C73 14.1634 65.8366 7 57 7Z" fill="#007FF1"/>
<path d="M40 59.6242C41.9231 59.6242 43.482 58.0652 43.482 56.1422C43.482 54.2191 41.9231 52.6602 40 52.6602C38.0769 52.6602 36.518 54.2191 36.518 56.1422C36.518 58.0652 38.0769 59.6242 40 59.6242Z" fill="white"/>
<path d="M63.468 35.577C62.748 35.577 62.028 35.311 61.466 34.775C55.656 29.233 48.032 26.181 40 26.181C31.968 26.181 24.344 29.235 18.536 34.775C17.376 35.883 15.542 35.835 14.434 34.679C13.328 33.519 13.37 31.683 14.53 30.577C21.422 23.999 30.468 20.377 40 20.377C49.532 20.377 58.578 23.999 65.47 30.577C66.63 31.683 66.672 33.519 65.566 34.679C64.996 35.275 64.232 35.577 63.468 35.577Z" fill="white"/>
<path d="M55.65 43.3937C54.942 43.3937 54.232 43.1357 53.672 42.6137C49.95 39.1417 45.094 37.2297 39.998 37.2297C34.902 37.2297 30.048 39.1397 26.326 42.6137C25.154 43.7057 23.318 43.6377 22.226 42.4717C21.134 41.2997 21.196 39.4637 22.368 38.3717C27.168 33.8957 33.43 31.4297 39.998 31.4297C46.566 31.4297 52.828 33.8957 57.628 38.3717C58.8 39.4637 58.864 41.2997 57.77 42.4717C57.198 43.0837 56.424 43.3937 55.648 43.3937H55.65Z" fill="white"/>
<path d="M47.97 51.0713C47.292 51.0713 46.612 50.8353 46.06 50.3533C42.706 47.4213 37.29 47.4173 33.94 50.3533C32.734 51.4113 30.9 51.2873 29.846 50.0813C28.792 48.8753 28.914 47.0413 30.12 45.9873C32.854 43.5933 36.364 42.2773 40.002 42.2773C43.64 42.2773 47.15 43.5933 49.884 45.9873C51.09 47.0413 51.212 48.8753 50.158 50.0813C49.584 50.7373 48.78 51.0713 47.97 51.0713Z" fill="white"/>
</svg>
